<?xml version="1.0" encoding="UTF-8"?>
<svg xmlns="http://www.w3.org/2000/svg" width="35" height="30" viewBox="0 0 35 30" fill="none">
  <g clip-path="url(#clip0_6_90)">
    <path d="M30.8875 13.1917L29.0046 12.8574C28.7644 12.8151 28.5361 12.7161 28.3364 12.5676C28.1367 12.4192 27.9705 12.2251 27.8501 11.9994L25.2498 7.14601C24.8186 6.34306 24.1964 5.67563 23.4461 5.21106C22.6959 4.74649 21.844 4.50122 20.9765 4.5H11.836C10.9685 4.50116 10.1167 4.74635 9.36642 5.21081C8.61616 5.67527 7.994 6.34258 7.56273 7.14543L4.91039 12.0962C4.80007 12.3009 4.65223 12.4799 4.47569 12.6225C4.29915 12.7649 4.09752 12.8681 3.88281 12.9257L2.07047 13.4087C1.61923 13.5292 1.2044 13.7708 0.865438 14.1106C0.526485 14.4504 0.27468 14.8771 0.133984 15.3501C0.127968 15.3652 0.127422 15.3833 0.1225 15.3991C0.0433245 15.6709 0.00204995 15.9537 0 16.2384V20.2501C0.000868357 21.0233 0.289232 21.7647 0.801836 22.3114C1.31445 22.8582 2.00944 23.1658 2.73437 23.1668H4.7496C5.05891 23.8647 5.54772 24.4545 6.15913 24.8676C6.77054 25.2807 7.47936 25.5 8.20309 25.5C8.92689 25.5 9.63571 25.2807 10.2471 24.8676C10.8585 24.4545 11.3473 23.8647 11.6566 23.1668H23.3433C23.6526 23.8647 24.1415 24.4545 24.7528 24.8676C25.3643 25.2807 26.0731 25.5 26.7968 25.5C27.5206 25.5 28.2295 25.2807 28.8408 24.8676C29.4523 24.4545 29.9411 23.8647 30.2504 23.1668H32.2656C32.9905 23.1658 33.6855 22.8582 34.1981 22.3114C34.7108 21.7647 34.9991 21.0233 35 20.2501V18.3699C35.0029 17.1265 34.5906 15.9224 33.8371 14.9736C33.0835 14.0248 32.0379 13.3931 30.8875 13.1917ZM33.3014 16.1667C33.5177 16.5264 33.6795 16.92 33.781 17.3334H33.3593C32.9255 17.3332 32.5093 17.1505 32.201 16.8247C32.0279 16.6385 31.8953 16.4139 31.8128 16.1667H33.3014ZM1.09922 16.1667H2.03383L1.76039 17.3334H1.09375V16.2384C1.09375 16.2139 1.09867 16.1906 1.09922 16.1667ZM8.20309 24.3334C7.66234 24.3334 7.13363 24.1624 6.68398 23.8418C6.23432 23.5214 5.88385 23.0658 5.67689 22.5329C5.46993 21.9999 5.41578 21.4135 5.52128 20.8477C5.6268 20.2819 5.88722 19.7622 6.26963 19.3544C6.65204 18.9464 7.13923 18.6686 7.66969 18.5561C8.20008 18.4436 8.74986 18.5013 9.24952 18.722C9.74918 18.9428 10.1762 19.3167 10.4767 19.7963C10.7771 20.276 10.9375 20.8399 10.9375 21.4168C10.9367 22.19 10.6483 22.9314 10.1356 23.4781C9.62304 24.0249 8.92808 24.3325 8.20309 24.3334ZM26.7968 24.3334C26.256 24.3334 25.7274 24.1624 25.2777 23.8418C24.8281 23.5214 24.4776 23.0658 24.2706 22.5329C24.0637 21.9999 24.0095 21.4135 24.115 20.8477C24.2206 20.2819 24.481 19.7622 24.8634 19.3544C25.2458 18.9464 25.733 18.6686 26.2634 18.5561C26.7938 18.4436 27.3436 18.5013 27.8433 18.722C28.3429 18.9428 28.7699 19.3167 29.0704 19.7963C29.3709 20.276 29.5312 20.8399 29.5312 21.4168C29.5303 22.19 29.242 22.9314 28.7294 23.4781C28.2168 24.0249 27.5218 24.3325 26.7968 24.3334ZM32.2656 22.0001H30.5812C30.6644 21.4185 30.6287 20.8246 30.4767 20.2592C30.3248 19.6936 30.06 19.1699 29.7006 18.7236C29.3413 18.2774 28.8957 17.9193 28.3945 17.6738C27.8934 17.4282 27.3484 17.3011 26.7968 17.3011C26.2454 17.3011 25.7004 17.4282 25.1992 17.6738C24.698 17.9193 24.2525 18.2774 23.8931 18.7236C23.5337 19.1699 23.269 19.6936 23.117 20.2592C22.965 20.8246 22.9293 21.4185 23.0125 22.0001H11.9875C12.0707 21.4185 12.035 20.8246 11.883 20.2592C11.731 19.6936 11.4663 19.1699 11.1069 18.7236C10.7475 18.2774 10.302 17.9193 9.80077 17.6738C9.29964 17.4282 8.75462 17.3011 8.20309 17.3011C7.65163 17.3011 7.10661 17.4282 6.60544 17.6738C6.10426 17.9193 5.65873 18.2774 5.29935 18.7236C4.93997 19.1699 4.67523 19.6936 4.52324 20.2592C4.37125 20.8246 4.3356 21.4185 4.41875 22.0001H2.73437C2.29925 22.0001 1.88196 21.8157 1.57428 21.4875C1.2666 21.1593 1.09375 20.7142 1.09375 20.2501V18.5001H2.1875C2.30941 18.5001 2.42783 18.4566 2.52394 18.3766C2.62005 18.2966 2.68834 18.1846 2.71797 18.0584L3.26484 15.7251C3.28504 15.6391 3.28659 15.5493 3.26938 15.4626C3.25216 15.3758 3.21663 15.2944 3.16549 15.2245C3.11435 15.1546 3.04894 15.0981 2.97424 15.0592C2.89953 15.0202 2.8175 15.0001 2.73437 15.0001H1.57992C1.78841 14.7768 2.04982 14.6181 2.33625 14.5409L4.14914 14.0574C4.50663 13.9611 4.8423 13.7891 5.13618 13.5516C5.43006 13.3141 5.67614 13.0159 5.85976 12.6749L8.51214 7.7241C8.84765 7.0997 9.33156 6.58071 9.91515 6.21949C10.4987 5.85828 11.1613 5.66759 11.836 5.66667H20.9765C21.6512 5.66759 22.3138 5.85828 22.8973 6.21949C23.4809 6.58071 23.9649 7.0997 24.3004 7.7241L26.9002 12.5774C27.1008 12.9538 27.3776 13.2776 27.7106 13.5252C28.0435 13.7728 28.4242 13.9379 28.8247 14.0084L30.7075 14.3432C31.2582 14.4403 31.7822 14.6646 32.2432 15.0001H31.1718C31.0268 15.0001 30.8877 15.0615 30.7852 15.1709C30.6826 15.2803 30.625 15.4287 30.625 15.5834C30.6246 15.9665 30.6951 16.346 30.8324 16.7C30.9697 17.054 31.1711 17.3757 31.425 17.6466C31.6791 17.9175 31.9806 18.1324 32.3126 18.2788C32.6444 18.4252 33.0002 18.5004 33.3593 18.5001H33.9062V20.2501C33.9062 20.7142 33.7333 21.1593 33.4257 21.4875C33.118 21.8157 32.7007 22.0001 32.2656 22.0001Z" fill="black"></path>
    <path d="M24.8599 10.0329C24.7851 9.90027 24.6641 9.80468 24.5233 9.76722C24.3825 9.72975 24.2336 9.75347 24.1093 9.83314C23.9849 9.91281 23.8953 10.0419 23.8601 10.1921C23.825 10.3422 23.8472 10.5011 23.9219 10.6338L24.7374 12.0834H18.0468V7.41667H21.1832C21.4664 7.41749 21.7447 7.49613 21.9911 7.645C22.2376 7.79386 22.444 8.00794 22.5903 8.26659L22.937 8.88376C23.0117 9.01642 23.1328 9.11201 23.2735 9.14947C23.4143 9.18694 23.5633 9.16322 23.6876 9.08355C23.812 9.00388 23.9016 8.87476 23.9367 8.72462C23.9719 8.57447 23.9496 8.41559 23.8749 8.28293L23.5276 7.66576C23.2838 7.23485 22.94 6.87822 22.5293 6.63025C22.1187 6.38228 21.6551 6.25132 21.1832 6.25H17.5C17.355 6.25 17.2159 6.31146 17.1133 6.42086C17.0108 6.53025 16.9531 6.67862 16.9531 6.83334V12.6667C16.9531 12.8214 17.0108 12.9698 17.1133 13.0792C17.2159 13.1885 17.355 13.25 17.5 13.25H25.7031C25.7999 13.25 25.895 13.2226 25.9786 13.1706C26.0622 13.1185 26.1314 13.0438 26.179 12.9539C26.2267 12.864 26.2511 12.7623 26.2499 12.6591C26.2486 12.5558 26.2217 12.4548 26.1718 12.3663L24.8599 10.0329ZM15.3125 6.25H11.6293C11.1574 6.25132 10.6938 6.38228 10.2832 6.63025C9.87252 6.87822 9.52875 7.23485 9.28487 7.66576L6.6407 12.3663C6.59086 12.4548 6.56392 12.5558 6.56265 12.6591C6.56138 12.7623 6.58582 12.864 6.63349 12.9539C6.68114 13.0438 6.75031 13.1185 6.83392 13.1706C6.91753 13.2226 7.0126 13.25 7.10941 13.25H15.3125C15.4575 13.25 15.5966 13.1885 15.6992 13.0792C15.8017 12.9698 15.8593 12.8214 15.8593 12.6667V6.83334C15.8593 6.67862 15.8017 6.53025 15.6992 6.42086C15.5966 6.31146 15.4575 6.25 15.3125 6.25ZM14.7656 12.0834H8.07513L10.2222 8.26659C10.3685 8.00794 10.5749 7.79386 10.8214 7.645C11.0678 7.49613 11.3461 7.41749 11.6293 7.41667H14.7656V12.0834ZM18.5937 13.8334H17.5C17.355 13.8334 17.2159 13.8948 17.1133 14.0043C17.0108 14.1136 16.9531 14.262 16.9531 14.4167C16.9531 14.5714 17.0108 14.7198 17.1133 14.8292C17.2159 14.9385 17.355 15 17.5 15H18.5937C18.7388 15 18.8779 14.9385 18.9804 14.8292C19.083 14.7198 19.1406 14.5714 19.1406 14.4167C19.1406 14.262 19.083 14.1136 18.9804 14.0043C18.8779 13.8948 18.7388 13.8334 18.5937 13.8334ZM8.20316 13.8334H7.10941C6.96433 13.8334 6.82524 13.8948 6.72267 14.0043C6.62012 14.1136 6.5625 14.262 6.5625 14.4167C6.5625 14.5714 6.62012 14.7198 6.72267 14.8292C6.82524 14.9385 6.96433 15 7.10941 15H8.20316C8.3482 15 8.48729 14.9385 8.58984 14.8292C8.69239 14.7198 8.75 14.5714 8.75 14.4167C8.75 14.262 8.69239 14.1136 8.58984 14.0043C8.48729 13.8948 8.3482 13.8334 8.20316 13.8334ZM26.7968 19.6667C26.4724 19.6667 26.1551 19.7694 25.8854 19.9617C25.6156 20.154 25.4053 20.4272 25.2811 20.747C25.1569 21.0668 25.1245 21.4186 25.1877 21.7581C25.2511 22.0976 25.4073 22.4094 25.6368 22.6541C25.8662 22.8989 26.1586 23.0656 26.4768 23.1331C26.795 23.2006 27.1249 23.166 27.4247 23.0335C27.7245 22.901 27.9807 22.6768 28.161 22.389C28.3412 22.1012 28.4375 21.7628 28.4375 21.4167C28.4375 20.9526 28.2647 20.5075 27.9569 20.1793C27.6493 19.8511 27.232 19.6667 26.7968 19.6667ZM26.7968 22.0001C26.6887 22.0001 26.583 21.9658 26.493 21.9017C26.4031 21.8377 26.333 21.7465 26.2917 21.6399C26.2502 21.5334 26.2394 21.4161 26.2605 21.3029C26.2816 21.1897 26.3337 21.0858 26.4102 21.0042C26.4867 20.9226 26.5841 20.8671 26.6902 20.8446C26.7963 20.8221 26.9062 20.8337 27.0061 20.8778C27.1061 20.9219 27.1915 20.9967 27.2516 21.0927C27.3117 21.1886 27.3437 21.3013 27.3437 21.4167C27.3437 21.5715 27.2861 21.7198 27.1836 21.8292C27.081 21.9386 26.9419 22.0001 26.7968 22.0001ZM8.20316 19.6667C7.87864 19.6667 7.56147 19.7694 7.29162 19.9617C7.02184 20.154 6.81156 20.4272 6.68739 20.747C6.56321 21.0668 6.53072 21.4186 6.59403 21.7581C6.65733 22.0976 6.81358 22.4094 7.04305 22.6541C7.27244 22.8989 7.56483 23.0656 7.88305 23.1331C8.20134 23.2006 8.53118 23.166 8.83099 23.0335C9.13073 22.901 9.387 22.6768 9.56725 22.389C9.7475 22.1012 9.84375 21.7628 9.84375 21.4167C9.84375 20.9526 9.67092 20.5075 9.3632 20.1793C9.05555 19.8511 8.63828 19.6667 8.20316 19.6667ZM8.20316 22.0001C8.09494 22.0001 7.98924 21.9658 7.89929 21.9017C7.80934 21.8377 7.73927 21.7465 7.6979 21.6399C7.65646 21.5334 7.64568 21.4161 7.66675 21.3029C7.68789 21.1897 7.73997 21.0858 7.81641 21.0042C7.89292 20.9226 7.99036 20.8671 8.09641 20.8446C8.20253 20.8221 8.3125 20.8337 8.41239 20.8778C8.51235 20.9219 8.59775 20.9967 8.65781 21.0927C8.71794 21.1886 8.75 21.3013 8.75 21.4167C8.75 21.5715 8.69239 21.7198 8.58984 21.8292C8.48729 21.9386 8.3482 22.0001 8.20316 22.0001Z" fill="black"></path>
  </g>
  <defs>
    <clipPath id="clip0_6_90">
      <rect width="35" height="30" fill="white"></rect>
    </clipPath>
  </defs>
</svg>
