<?xml version="1.0" encoding="UTF-8"?>
<svg xmlns="http://www.w3.org/2000/svg" width="35" height="30" viewBox="0 0 35 30" fill="none">
  <g clip-path="url(#clip0_6_96)">
    <path d="M1.75 25.5H33.25C33.7141 25.5 34.1592 25.3419 34.4875 25.0607C34.8156 24.7793 35 24.3978 35 24V23.5C35 23.1021 34.8156 22.7206 34.4875 22.4393C34.1592 22.1581 33.7141 22 33.25 22H29.0144C29.4259 21.5738 29.6773 21.0509 29.7354 20.5H30.3263C31.171 20.5 31.9998 20.3035 32.7244 19.9316C33.449 19.5595 34.0422 19.0259 34.4408 18.3877C34.8394 17.7493 35.0284 17.0303 34.9877 16.3072C34.9469 15.584 34.6781 14.8839 34.2096 14.2815L27.9872 6.2815C27.5617 5.73296 26.9844 5.2832 26.3068 4.97236C25.6292 4.66151 24.8724 4.49924 24.1039 4.5H1.75C1.28587 4.5 0.840749 4.65804 0.512563 4.93934C0.184374 5.22065 0 5.60218 0 6V20C0 20.1326 0.0614582 20.2598 0.170855 20.3535C0.280251 20.4473 0.428624 20.5 0.583333 20.5H15.7646C15.8229 21.051 16.0737 21.574 16.4856 22H1.75C1.28587 22 0.840749 22.1581 0.512563 22.4393C0.184374 22.7206 0 23.1021 0 23.5V24C0 24.3978 0.184374 24.7793 0.512563 25.0607C0.840749 25.3419 1.28587 25.5 1.75 25.5ZM26.5417 22C26.052 21.9988 25.5793 21.8466 25.2098 21.5711C24.8404 21.2957 24.599 20.9155 24.5297 20.5H28.5547C28.4855 20.9156 28.244 21.296 27.8742 21.5715C27.5045 21.8469 27.0315 21.999 26.5417 22ZM23.3479 20.5C23.4062 21.051 23.6571 21.574 24.0689 22H21.4311C21.8426 21.5738 22.094 21.0509 22.1521 20.5H23.3479ZM31.4218 12.5H23.3333C23.1786 12.5 23.0303 12.4473 22.9209 12.3536C22.8115 12.2598 22.75 12.1326 22.75 12V8.5C22.75 8.3674 22.8115 8.24022 22.9209 8.14645C23.0303 8.05268 23.1786 8 23.3333 8H27.9218L31.4218 12.5ZM1.16667 16H2.91667V16.5C2.91667 16.8978 3.10104 17.2793 3.42923 17.5607C3.75742 17.842 4.20254 18 4.66667 18H8.75C9.2141 18 9.65923 17.842 9.98746 17.5607C10.3156 17.2793 10.5 16.8978 10.5 16.5V16H23.9167C24.0714 16 24.2197 15.9473 24.3291 15.8536C24.4385 15.7598 24.5 15.6326 24.5 15.5C24.5 15.3674 24.4385 15.2402 24.3291 15.1464C24.2197 15.0527 24.0714 15 23.9167 15H10.5V8.5C10.5 8.10218 10.3156 7.72064 9.98746 7.43934C9.65923 7.15804 9.2141 7 8.75 7H4.66667C4.20254 7 3.75742 7.15804 3.42923 7.43934C3.10104 7.72064 2.91667 8.10218 2.91667 8.5V15H1.16667V6C1.16667 5.86739 1.22812 5.74022 1.33752 5.64645C1.44691 5.55268 1.59529 5.50001 1.75 5.50001H24.1039C24.6802 5.49947 25.2477 5.62118 25.7558 5.85429C26.2639 6.0874 26.6968 6.42466 27.0159 6.83601L27.1437 7H23.3333C22.8692 7 22.4241 7.15804 22.0959 7.43934C21.7677 7.72064 21.5833 8.10218 21.5833 8.5V12C21.5833 12.3978 21.7677 12.7794 22.0959 13.0606C22.4241 13.342 22.8692 13.5 23.3333 13.5H32.2L33.2389 14.836C33.2809 14.889 33.3118 14.9455 33.3492 15H26.8333C26.6786 15 26.5303 15.0527 26.4209 15.1464C26.3115 15.2402 26.25 15.3674 26.25 15.5C26.25 15.6326 26.3115 15.7598 26.4209 15.8536C26.5303 15.9473 26.6786 16 26.8333 16H33.782C33.8654 16.4303 33.8386 16.8711 33.7035 17.2917C33.5683 17.7122 33.328 18.1025 32.9992 18.4355C32.6705 18.7685 32.261 19.0362 31.7995 19.22C31.3379 19.4038 30.8353 19.4994 30.3263 19.5H1.16667V16ZM9.33331 16.5C9.33331 16.6326 9.27185 16.7598 9.16251 16.8535C9.0531 16.9473 8.9047 17 8.75 17H4.66667C4.51195 17 4.36358 16.9473 4.25419 16.8535C4.14479 16.7598 4.08333 16.6326 4.08333 16.5V8.5C4.08333 8.3674 4.14479 8.24022 4.25419 8.14645C4.36358 8.05268 4.51195 8 4.66667 8H8.75C8.9047 8 9.0531 8.05268 9.16251 8.14645C9.27185 8.24022 9.33331 8.3674 9.33331 8.5V16.5ZM16.9464 20.5H20.9714C20.904 20.9165 20.6632 21.298 20.2933 21.5741C19.9234 21.8502 19.4494 22.0023 18.9589 22.0023C18.4684 22.0023 17.9944 21.8502 17.6245 21.5741C17.2546 21.298 17.0138 20.9165 16.9464 20.5ZM1.16667 23.5C1.16667 23.3674 1.22812 23.2402 1.33752 23.1465C1.44691 23.0527 1.59529 23 1.75 23H33.25C33.4047 23 33.5531 23.0527 33.6625 23.1465C33.7718 23.2402 33.8333 23.3674 33.8333 23.5V24C33.8333 24.1326 33.7718 24.2598 33.6625 24.3535C33.5531 24.4473 33.4047 24.5 33.25 24.5H1.75C1.59529 24.5 1.44691 24.4473 1.33752 24.3535C1.22812 24.2598 1.16667 24.1326 1.16667 24V23.5Z" fill="black"></path>
    <path d="M18.0833 6.99999H14C13.5359 6.99999 13.0908 7.15803 12.7625 7.43933C12.4344 7.72063 12.25 8.10216 12.25 8.49999V12C12.25 12.3978 12.4344 12.7793 12.7625 13.0606C13.0908 13.342 13.5359 13.5 14 13.5H18.0833C18.5475 13.5 18.9926 13.342 19.3208 13.0606C19.6489 12.7793 19.8333 12.3978 19.8333 12V8.49999C19.8333 8.10216 19.6489 7.72063 19.3208 7.43933C18.9926 7.15803 18.5475 6.99999 18.0833 6.99999ZM18.6667 12C18.6667 12.1326 18.6052 12.2598 18.4958 12.3535C18.3864 12.4473 18.238 12.5 18.0833 12.5H14C13.8453 12.5 13.6969 12.4473 13.5875 12.3535C13.4781 12.2598 13.4167 12.1326 13.4167 12V8.49999C13.4167 8.36738 13.4781 8.2402 13.5875 8.14643C13.6969 8.05267 13.8453 7.99999 14 7.99999H18.0833C18.238 7.99999 18.3864 8.05267 18.4958 8.14643C18.6052 8.2402 18.6667 8.36738 18.6667 8.49999V12ZM7.58331 8.99998H5.83333C5.67862 8.99998 5.53025 9.05267 5.42086 9.14643C5.31146 9.2402 5.25 9.36738 5.25 9.49999C5.25 9.6326 5.31146 9.75977 5.42086 9.85354C5.53025 9.94731 5.67862 9.99999 5.83333 9.99999H7.58331C7.73801 9.99999 7.88641 9.94731 7.99582 9.85354C8.10523 9.75977 8.16669 9.6326 8.16669 9.49999C8.16669 9.36738 8.10523 9.2402 7.99582 9.14643C7.88641 9.05267 7.73801 8.99998 7.58331 8.99998ZM7.58331 11H5.83333C5.67862 11 5.53025 11.0527 5.42086 11.1464C5.31146 11.2402 5.25 11.3674 5.25 11.5C5.25 11.6326 5.31146 11.7598 5.42086 11.8536C5.53025 11.9473 5.67862 12 5.83333 12H7.58331C7.73801 12 7.88641 11.9473 7.99582 11.8536C8.10523 11.7598 8.16669 11.6326 8.16669 11.5C8.16669 11.3674 8.10523 11.2402 7.99582 11.1464C7.88641 11.0527 7.73801 11 7.58331 11Z" fill="black"></path>
  </g>
  <defs>
    <clipPath id="clip0_6_96">
      <rect width="35" height="30" fill="white"></rect>
    </clipPath>
  </defs>
</svg>
