<?xml version="1.0" encoding="UTF-8"?>
<svg xmlns="http://www.w3.org/2000/svg" width="35" height="30" viewBox="0 0 35 30" fill="none">
  <g clip-path="url(#clip0_6_99)">
    <path d="M34.4811 24.4986C32.9815 24.4986 32.2799 24.2228 31.4674 23.9035C30.7782 23.6327 30.0656 23.3526 28.9404 23.228C28.6596 23.1975 28.4048 23.3943 28.3728 23.6689C28.3575 23.8009 28.3965 23.9333 28.4812 24.0372C28.5659 24.1411 28.6896 24.2079 28.8247 24.2228C29.8115 24.3321 30.4297 24.575 31.0842 24.8323C31.9192 25.1606 32.7826 25.4999 34.4811 25.4999C34.5489 25.5006 34.6163 25.4882 34.6792 25.4635C34.7421 25.4386 34.7994 25.4019 34.8476 25.3553C34.8959 25.3088 34.9342 25.2533 34.9604 25.1921C34.9866 25.131 35 25.0654 35 24.9992C35 24.933 34.9866 24.8674 34.9604 24.8063C34.9342 24.7452 34.8959 24.6897 34.8476 24.6432C34.7994 24.5966 34.7421 24.5598 34.6792 24.535C34.6163 24.5102 34.5489 24.4978 34.4811 24.4986ZM27.0016 23.6691C26.9697 23.3943 26.7156 23.1972 26.434 23.228C25.3088 23.3526 24.5962 23.6327 23.9069 23.9035C23.0945 24.2228 22.3929 24.4986 20.8933 24.4986C19.3938 24.4986 18.6922 24.2228 17.8799 23.9035C16.9974 23.5567 15.9972 23.1635 14.0998 23.1635C12.2025 23.1635 11.2022 23.5567 10.3198 23.9035C9.50747 24.2228 8.80586 24.4986 7.30646 24.4986C5.80697 24.4986 5.10538 24.2228 4.293 23.9035C3.41055 23.5567 2.41029 23.1635 0.513019 23.1635C0.376958 23.1635 0.246469 23.2163 0.15026 23.3102C0.05405 23.4041 0 23.5315 0 23.6642C0 23.797 0.05405 23.9244 0.15026 24.0182C0.246469 24.1121 0.376958 24.1649 0.513019 24.1649C2.21146 24.1649 3.03635 24.4891 3.90977 24.8325C4.7447 25.1606 5.60808 25.5 7.30646 25.5C9.00466 25.5 9.86804 25.1607 10.7031 24.8325C11.5764 24.4892 12.4013 24.1649 14.0998 24.1649C15.7983 24.1649 16.6232 24.4891 17.4966 24.8325C18.3316 25.1606 19.1949 25.5 20.8933 25.5C22.5917 25.5 23.4551 25.1607 24.2903 24.8325C24.9448 24.5752 25.5629 24.3323 26.5497 24.223C26.6166 24.2156 26.6813 24.1954 26.7403 24.1636C26.7993 24.1317 26.8512 24.0888 26.8932 24.0374C26.9352 23.986 26.9663 23.927 26.9849 23.8637C27.0035 23.8005 27.0091 23.7344 27.0016 23.6691Z" fill="black"></path>
    <path d="M34.4811 22.38C32.882 22.38 32.1018 22.0734 31.2757 21.7488C30.7567 21.5447 30.227 21.3367 29.5113 21.2002L34.6659 14.746C34.748 14.644 34.7989 14.5216 34.8126 14.3926C34.8264 14.2637 34.8025 14.1335 34.7437 14.0173C34.6859 13.9006 34.5955 13.8022 34.4828 13.7335C34.3701 13.6648 34.2399 13.6287 34.107 13.6292H26.7322L24.0099 8.14879C23.8257 7.76684 23.4273 7.52004 22.9948 7.52004H11.8434L10.806 5.09526C10.7308 4.91877 10.6037 4.76801 10.4407 4.66205C10.2778 4.55609 10.0862 4.49969 9.89037 4.5H6.97476C6.42757 4.5 5.98249 4.93444 5.98249 5.46846V7.52004H5.01912C4.40064 7.52004 3.8974 8.01111 3.8974 8.61477V14.9259H1.15754C0.936026 14.9259 0.724283 15.0291 0.59114 15.2019C0.457999 15.3748 0.415213 15.6019 0.476794 15.8097L2.06041 21.1528C1.6234 21.0857 1.11872 21.045 0.513019 21.045C0.376958 21.045 0.246469 21.0977 0.15026 21.1916C0.05405 21.2855 0 21.4128 0 21.5456C0 21.6784 0.05405 21.8058 0.15026 21.8997C0.246469 21.9936 0.376958 22.0463 0.513019 22.0463C2.11195 22.0463 2.89214 22.3529 3.71812 22.6776C4.59844 23.0237 5.5087 23.3814 7.30653 23.3814C9.10427 23.3814 10.0146 23.0237 10.8949 22.6776C11.7208 22.3529 12.5009 22.0463 14.0999 22.0463C15.6989 22.0463 16.479 22.3529 17.305 22.6776C18.1853 23.0237 19.0956 23.3814 20.8934 23.3814C22.6913 23.3814 23.6016 23.0237 24.4819 22.6776C25.3079 22.3529 26.0882 22.0463 27.6872 22.0463C29.2862 22.0463 30.0665 22.3529 30.8925 22.6776C31.7729 23.0237 32.6831 23.3814 34.4811 23.3814C34.6171 23.3814 34.7476 23.3287 34.8438 23.2347C34.94 23.1409 34.9941 23.0135 34.9941 22.8807C34.9941 22.7479 34.94 22.6205 34.8438 22.5267C34.7476 22.4328 34.6171 22.38 34.4811 22.38ZM7.00847 5.50141H9.8679L10.7316 7.52011H7.00847V5.50141ZM27.6872 21.0451C25.8894 21.0451 24.979 21.4028 24.0986 21.7488C23.2726 22.0735 22.4924 22.3801 20.8933 22.3801C19.2943 22.3801 18.5141 22.0735 17.6882 21.7488C16.8079 21.4028 15.8976 21.0451 14.0998 21.0451C12.3021 21.0451 11.3917 21.4028 10.5115 21.7488C9.68548 22.0735 8.9054 22.3801 7.30646 22.3801C5.70752 22.3801 4.92733 22.0735 4.10135 21.7488C3.81647 21.6369 3.52832 21.5238 3.20818 21.4219L1.57973 15.9273H5.84756C5.98363 15.9273 6.11411 15.8745 6.21032 15.7806C6.30653 15.6867 6.36058 15.5594 6.36058 15.4266C6.36058 15.2938 6.30653 15.1665 6.21032 15.0726C6.11411 14.9786 5.98363 14.9259 5.84756 14.9259H4.92351V8.61477C4.92351 8.56328 4.96642 8.52139 5.01919 8.52139H22.9949C23.0317 8.52139 23.0658 8.54246 23.0841 8.58029L25.5922 13.6292H22.7087C22.3622 13.6291 22.0276 13.7527 21.768 13.9767L20.7793 14.8294C20.7072 14.8916 20.6142 14.9259 20.518 14.9259H8.23452C8.09851 14.9259 7.96803 14.9786 7.87178 15.0726C7.7756 15.1665 7.72156 15.2938 7.72156 15.4266C7.72156 15.5594 7.7756 15.6867 7.87178 15.7806C7.96803 15.8745 8.09851 15.9273 8.23452 15.9273H20.518C20.8649 15.9273 21.1989 15.8039 21.4588 15.5797L22.4474 14.7271C22.5195 14.6648 22.6125 14.6305 22.7087 14.6305H33.4573L28.3217 21.0612C28.1104 21.0502 27.8988 21.0448 27.6872 21.0451Z" fill="black"></path>
    <path d="M8.69589 9.57615H6.96265C6.52782 9.57615 6.17405 9.92141 6.17405 10.3458V11.8975C6.17405 12.3219 6.52782 12.6671 6.96265 12.6671H8.69589C9.13073 12.6671 9.48444 12.3219 9.48444 11.8975V10.3458C9.48444 9.92141 9.13073 9.57615 8.69589 9.57615ZM8.45845 11.6658H7.20006V10.5774H8.45845V11.6658ZM12.9195 9.57615H11.1864C10.7515 9.57615 10.3977 9.92141 10.3977 10.3458V11.8975C10.3978 12.3219 10.7515 12.6671 11.1864 12.6671H12.9195C13.3544 12.6671 13.7081 12.3219 13.7081 11.8975V10.3458C13.7081 9.92141 13.3544 9.57615 12.9195 9.57615ZM12.6821 11.6658H11.4238V10.5774H12.6821V11.6658ZM17.1433 9.57615H15.41C14.9752 9.57615 14.6215 9.92141 14.6215 10.3458V11.8975C14.6215 12.3219 14.9752 12.6671 15.41 12.6671H17.1433C17.5781 12.6671 17.9318 12.3219 17.9318 11.8975V10.3458C17.9318 9.92141 17.5781 9.57615 17.1433 9.57615ZM16.9058 11.6658H15.6475V10.5774H16.9058V11.6658ZM22.8341 11.7564L22.1662 10.0145C22.1165 9.886 22.028 9.7753 21.9124 9.69703C21.7968 9.61877 21.6596 9.57664 21.5189 9.57622H19.6337C19.1988 9.57622 18.845 9.92147 18.845 10.3458V11.8976C18.8451 12.3219 19.1989 12.6671 19.6337 12.6671H22.1868C22.2985 12.6671 22.4085 12.6408 22.5074 12.5903C22.6063 12.5398 22.6912 12.4666 22.7548 12.3772C22.8184 12.2876 22.8589 12.1844 22.8726 12.0763C22.8865 11.9682 22.8733 11.8584 22.8341 11.7564ZM19.8711 11.6658V10.5774H21.2867L21.7039 11.6658H19.8711Z" fill="black"></path>
  </g>
  <defs>
    <clipPath id="clip0_6_99">
      <rect width="35" height="30" fill="white"></rect>
    </clipPath>
  </defs>
</svg>
