<?xml version="1.0" encoding="UTF-8"?>
<svg xmlns="http://www.w3.org/2000/svg" width="35" height="30" viewBox="0 0 35 30" fill="none">
  <g clip-path="url(#clip0_6_103)">
    <path d="M27.4167 19.9724C27.0705 19.9724 26.7322 20.0696 26.4444 20.2518C26.1566 20.4339 25.9323 20.6928 25.7999 20.9957C25.6674 21.2987 25.6327 21.6319 25.7003 21.9535C25.7678 22.2751 25.9345 22.5705 26.1792 22.8023C26.4239 23.0342 26.7358 23.192 27.0752 23.256C27.4147 23.32 27.7666 23.2872 28.0864 23.1616C28.4061 23.0362 28.6794 22.8238 28.8717 22.5511C29.064 22.2785 29.1667 21.958 29.1667 21.6301C29.1662 21.1906 28.9817 20.7692 28.6536 20.4584C28.3255 20.1476 27.8806 19.9728 27.4167 19.9724ZM27.4167 22.1827C27.3013 22.1827 27.1885 22.1503 27.0926 22.0896C26.9967 22.0288 26.9219 21.9425 26.8778 21.8416C26.8336 21.7406 26.822 21.6295 26.8445 21.5223C26.867 21.4151 26.9226 21.3167 27.0042 21.2394C27.0858 21.1621 27.1897 21.1095 27.3029 21.0882C27.416 21.0668 27.5333 21.0777 27.6399 21.1196C27.7465 21.1614 27.8376 21.2322 27.9017 21.3231C27.9658 21.414 28 21.5208 28 21.6301C27.9999 21.7766 27.9383 21.9171 27.829 22.0207C27.7196 22.1243 27.5713 22.1826 27.4167 22.1827ZM32.7291 13.2568L30.2085 12.3616L27.9358 6.33348C27.7327 5.79732 27.3599 5.33357 26.8683 5.00546C26.3767 4.67734 25.7902 4.50083 25.1889 4.5H2.91667C2.1434 4.50088 1.40207 4.79225 0.855295 5.31021C0.308515 5.82817 0.000926247 6.53042 0 7.26292V20.525C0.000463292 20.9645 0.184987 21.3859 0.513075 21.6967C0.841162 22.0075 1.28601 22.1823 1.75 22.1827H2.96333C3.10192 23.1033 3.58648 23.9457 4.32802 24.5551C5.06956 25.1645 6.01831 25.5 7 25.5C7.98168 25.5 8.93046 25.1645 9.67197 24.5551C10.4135 23.9457 10.8981 23.1033 11.0367 22.1827H23.38C23.5186 23.1033 24.0031 23.9457 24.7447 24.5551C25.4862 25.1645 26.4349 25.5 27.4167 25.5C28.3984 25.5 29.3471 25.1645 30.0887 24.5551C30.8302 23.9457 31.3148 23.1033 31.4533 22.1827H33.25C33.714 22.1823 34.1588 22.0075 34.4869 21.6967C34.815 21.3859 34.9995 20.9645 35 20.525V16.3612C34.9976 15.6868 34.7793 15.0291 34.3738 14.4747C33.9683 13.9204 33.3948 13.4957 32.7291 13.2568ZM28.9217 12.2362H22.1667V7.81551H27.2557L28.9217 12.2362ZM7 24.393C6.42314 24.393 5.85923 24.231 5.37958 23.9274C4.89994 23.6238 4.52611 23.1923 4.30535 22.6875C4.0846 22.1826 4.02683 21.627 4.13937 21.0911C4.25192 20.5551 4.5297 20.0628 4.9376 19.6764C5.34551 19.29 5.86521 19.0269 6.43098 18.9203C6.99677 18.8137 7.58324 18.8684 8.11615 19.0775C8.64913 19.2867 9.10462 19.6408 9.42515 20.0951C9.74561 20.5495 9.91669 21.0836 9.91669 21.6301C9.91571 22.3626 9.60813 23.0648 9.06136 23.5828C8.51459 24.1008 7.77329 24.3922 7 24.393ZM27.4167 24.393C26.8398 24.393 26.2759 24.231 25.7963 23.9274C25.3166 23.6238 24.9427 23.1923 24.722 22.6875C24.5013 22.1826 24.4435 21.627 24.5561 21.0911C24.6686 20.5551 24.9464 20.0628 25.3543 19.6764C25.7622 19.29 26.2819 19.0269 26.8477 18.9203C27.4134 18.8137 27.9999 18.8684 28.5328 19.0775C29.0657 19.2867 29.5213 19.6408 29.8418 20.0951C30.1623 20.5495 30.3333 21.0836 30.3333 21.6301C30.3324 22.3626 30.0248 23.0648 29.478 23.5828C28.9313 24.1008 28.1899 24.3922 27.4167 24.393ZM33.8333 20.525C33.8332 20.6715 33.7716 20.812 33.6623 20.9155C33.553 21.0191 33.4046 21.0774 33.25 21.0775H31.4533C31.3148 20.1569 30.8302 19.3145 30.0887 18.7052C29.3471 18.0958 28.3984 17.7602 27.4167 17.7602C26.4349 17.7602 25.4862 18.0958 24.7447 18.7052C24.0031 19.3145 23.5186 20.1569 23.38 21.0775H11.0367C10.8981 20.1569 10.4135 19.3145 9.67197 18.7052C8.93046 18.0958 7.98168 17.7602 7 17.7602C6.01831 17.7602 5.06956 18.0958 4.32802 18.7052C3.58648 19.3145 3.10192 20.1569 2.96333 21.0775H1.75C1.59533 21.0774 1.44705 21.0191 1.33769 20.9155C1.22833 20.812 1.16682 20.6715 1.16667 20.525V7.26292C1.16713 6.82339 1.35165 6.40199 1.67974 6.0912C2.00783 5.7804 2.45268 5.60561 2.91667 5.60517H25.1889C25.5497 5.60568 25.9015 5.7116 26.1964 5.90849C26.4914 6.10538 26.715 6.38366 26.8368 6.70536L26.8392 6.71034H22.1667C21.8574 6.71063 21.5608 6.82716 21.342 7.03436C21.1233 7.24155 21.0003 7.52249 21 7.81551V12.2362C21.0003 12.5292 21.1233 12.8101 21.342 13.0173C21.5608 13.2245 21.8574 13.3411 22.1667 13.3413H29.6438L32.3196 14.2918C32.7634 14.4511 33.1456 14.7342 33.4159 15.1037C33.6862 15.4732 33.8318 15.9117 33.8333 16.3612V20.525ZM7 19.9724C6.65388 19.9724 6.31554 20.0696 6.02775 20.2518C5.73996 20.4339 5.51566 20.6928 5.38321 20.9957C5.25076 21.2987 5.2161 21.6319 5.28363 21.9535C5.35115 22.2751 5.51782 22.5705 5.76256 22.8023C6.0073 23.0342 6.31912 23.192 6.65859 23.256C6.99806 23.32 7.34993 23.2872 7.66969 23.1616C7.98945 23.0362 8.2628 22.8238 8.45509 22.5511C8.64738 22.2785 8.75 21.958 8.75 21.6301C8.74951 21.1906 8.56499 20.7692 8.2369 20.4584C7.90881 20.1476 7.46396 19.9728 7 19.9724ZM7 22.1827C6.88463 22.1827 6.77185 22.1503 6.67591 22.0896C6.57999 22.0288 6.50522 21.9425 6.46107 21.8416C6.41692 21.7406 6.40536 21.6295 6.42788 21.5223C6.45038 21.4151 6.50594 21.3167 6.58752 21.2394C6.6691 21.1621 6.77304 21.1095 6.88619 21.0882C6.99936 21.0668 7.11662 21.0777 7.22323 21.1196C7.32984 21.1614 7.42091 21.2322 7.48503 21.3231C7.54915 21.414 7.58331 21.5208 7.58331 21.6301C7.58317 21.7766 7.52164 21.9171 7.4123 22.0207C7.30296 22.1243 7.15463 22.1826 7 22.1827ZM24.5 15.5517C24.5 15.6982 24.4385 15.8388 24.3291 15.9424C24.2197 16.0461 24.0714 16.1042 23.9167 16.1042H21.5833C21.4286 16.1042 21.2803 16.0461 21.1709 15.9424C21.0615 15.8388 21 15.6982 21 15.5517C21 15.4052 21.0615 15.2646 21.1709 15.1609C21.2803 15.0573 21.4286 14.9991 21.5833 14.9991H23.9167C24.0714 14.9991 24.2197 15.0573 24.3291 15.1609C24.4385 15.2646 24.5 15.4052 24.5 15.5517ZM18.6667 6.71034H3.5C3.19068 6.71063 2.89411 6.82716 2.67539 7.03436C2.45666 7.24155 2.33364 7.52249 2.33333 7.81551V12.2362C2.33364 12.5292 2.45666 12.8101 2.67539 13.0173C2.89411 13.2245 3.19068 13.3411 3.5 13.3413H18.6667C18.976 13.3411 19.2725 13.2245 19.4913 13.0173C19.71 12.8101 19.833 12.5292 19.8333 12.2362V7.81551C19.833 7.52249 19.71 7.24155 19.4913 7.03436C19.2725 6.82716 18.976 6.71063 18.6667 6.71034ZM3.5 7.81551H10.5V12.2362H3.5V7.81551ZM11.6667 12.2362V7.81551H18.6667L18.6678 12.2362H11.6667Z" fill="black"></path>
  </g>
  <defs>
    <clipPath id="clip0_6_103">
      <rect width="35" height="30" fill="white"></rect>
    </clipPath>
  </defs>
</svg>
