<svg width="26" height="18" viewBox="0 0 26 18" fill="none" xmlns="http://www.w3.org/2000/svg">
<g clip-path="url(#clip0_17_2)">
<path d="M20.6832 6.05443L20.4534 6.62147L21.0549 6.73371C23.6453 7.21714 25.5 9.46982 25.5 12.0337C25.5 13.573 24.8343 15.0529 23.6667 16.09C22.4982 17.1192 20.9207 17.6286 19.3329 17.4722C16.4907 17.1844 14.2846 14.6588 14.3404 11.7032C14.4201 7.67759 15.8945 5.07458 17.6289 3.38578C19.3761 1.68459 21.4158 0.884497 22.6452 0.531618L22.6591 0.527628L22.6728 0.52284C22.7152 0.507954 22.7704 0.5 22.8713 0.5C23.1425 0.5 23.3799 0.624329 23.5265 0.85037L23.5277 0.852289C23.7128 1.13485 23.6857 1.4981 23.4524 1.75822C22.2164 3.13693 21.2806 4.57999 20.6832 6.05443Z" stroke="white"/>
<path d="M6.84137 6.05442L6.6116 6.62147L7.21304 6.73371C9.80354 7.21714 11.6582 9.46983 11.6582 12.0337C11.6582 13.573 10.9925 15.0529 9.82488 16.09C8.65616 17.1194 7.07866 17.6285 5.50009 17.4722C2.67977 17.1842 0.498657 14.7207 0.498657 11.8126V11.6985C0.579464 7.67556 2.05337 5.07393 3.78711 3.38579C5.53425 1.6846 7.57401 0.884504 8.80341 0.531628L8.81732 0.527636L8.83097 0.522848C8.87341 0.507959 8.9286 0.500008 9.02945 0.500008C9.30071 0.500008 9.53808 0.624359 9.6846 0.850338L9.68591 0.852327C9.87104 1.13488 9.84387 1.49811 9.6106 1.75823C8.37452 3.13693 7.43882 4.57999 6.84137 6.05442Z" stroke="white"/>
</g>
<defs>
<clipPath id="clip0_17_2">
<rect width="26" height="18" fill="white"/>
</clipPath>
</defs>
</svg>
